<svg width="489" height="41" viewBox="0 0 489 41" fill="none" xmlns="http://www.w3.org/2000/svg">
<path d="M0.234985 1.61001H13.71C17.4867 1.61001 20.365 2.52668 22.345 4.36001C24.3617 6.19334 25.37 8.68667 25.37 11.84C25.37 14.04 24.82 15.8 23.72 17.12C22.6567 18.4033 21.1167 19.3383 19.1 19.925V20.255C21.4833 20.8417 23.3167 21.8683 24.6 23.335C25.92 24.8017 26.58 26.8367 26.58 29.44C26.58 32.6667 25.5533 35.2333 23.5 37.14C21.4833 39.0467 18.6417 40 14.975 40H0.234985V1.61001ZM12.445 34.225C14.425 34.225 15.8733 33.895 16.79 33.235C17.7067 32.575 18.165 31.365 18.165 29.605V28.01C18.165 26.25 17.7067 25.04 16.79 24.38C15.8733 23.72 14.425 23.39 12.445 23.39H8.26499V34.225H12.445ZM11.4 17.89C13.3433 17.89 14.755 17.5783 15.635 16.955C16.515 16.295 16.955 15.1217 16.955 13.435V11.785C16.955 10.0983 16.515 8.94334 15.635 8.32001C14.755 7.69667 13.3433 7.38501 11.4 7.38501H8.26499V17.89H11.4ZM45.4785 40.66C40.3452 40.66 36.5502 38.9183 34.0935 35.435C31.6735 31.9517 30.4635 27.075 30.4635 20.805C30.4635 14.535 31.6735 9.65834 34.0935 6.17501C36.5502 2.69168 40.3452 0.950012 45.4785 0.950012C50.6119 0.950012 54.3885 2.69168 56.8085 6.17501C59.2652 9.65834 60.4935 14.535 60.4935 20.805C60.4935 27.075 59.2652 31.9517 56.8085 35.435C54.3885 38.9183 50.6119 40.66 45.4785 40.66ZM45.4785 34.005C47.8252 34.005 49.4385 33.1433 50.3185 31.42C51.2352 29.66 51.6935 27.2217 51.6935 24.105V17.45C51.6935 14.37 51.2352 11.9683 50.3185 10.245C49.4385 8.48501 47.8252 7.60501 45.4785 7.60501C43.1318 7.60501 41.5002 8.48501 40.5835 10.245C39.7035 11.9683 39.2635 14.37 39.2635 17.45V24.16C39.2635 27.24 39.7035 29.66 40.5835 31.42C41.5002 33.1433 43.1318 34.005 45.4785 34.005ZM78.457 40.66C73.3237 40.66 69.5287 38.9183 67.072 35.435C64.652 31.9517 63.442 27.075 63.442 20.805C63.442 14.535 64.652 9.65834 67.072 6.17501C69.5287 2.69168 73.3237 0.950012 78.457 0.950012C83.5904 0.950012 87.367 2.69168 89.787 6.17501C92.2437 9.65834 93.472 14.535 93.472 20.805C93.472 27.075 92.2437 31.9517 89.787 35.435C87.367 38.9183 83.5904 40.66 78.457 40.66ZM78.457 34.005C80.8037 34.005 82.417 33.1433 83.297 31.42C84.2137 29.66 84.672 27.2217 84.672 24.105V17.45C84.672 14.37 84.2137 11.9683 83.297 10.245C82.417 8.48501 80.8037 7.60501 78.457 7.60501C76.1104 7.60501 74.4787 8.48501 73.562 10.245C72.682 11.9683 72.242 14.37 72.242 17.45V24.16C72.242 27.24 72.682 29.66 73.562 31.42C74.4787 33.1433 76.1104 34.005 78.457 34.005ZM110.336 23.995L106.926 28.78V40H98.6755V1.61001H106.926V17.67H107.366L111.546 11.29L118.311 1.61001H127.551L116.056 17.835L128.101 40H118.806L110.336 23.995ZM130.884 40L128.519 1.61001H135.614L136.714 24.6L137.044 31.86H137.539L140.839 9.97001H148.264L151.564 31.86H152.059L152.389 24.82L153.489 1.61001H160.309L157.944 40H147.494L144.689 18.825H144.139L141.334 40H130.884ZM184.818 40L182.398 30.76H171.893L169.528 40H161.168L171.563 1.61001H183.223L193.618 40H184.818ZM177.393 9.58501H176.953L173.213 24.105H181.133L177.393 9.58501ZM206.191 40H198.051V1.61001H212.901C214.771 1.61001 216.439 1.90334 217.906 2.49001C219.373 3.04001 220.601 3.84667 221.591 4.91001C222.618 5.97334 223.388 7.25668 223.901 8.76001C224.414 10.2633 224.671 11.95 224.671 13.82C224.671 16.5333 224.084 18.8617 222.911 20.805C221.738 22.7483 220.069 24.0317 217.906 24.655L225.441 40H216.421L209.986 25.755H206.191V40ZM210.921 19.375C212.864 19.375 214.203 19.0083 214.936 18.275C215.706 17.5417 216.091 16.3317 216.091 14.645V12.995C216.091 11.3083 215.706 10.0983 214.936 9.36501C214.203 8.63168 212.864 8.26501 210.921 8.26501H206.191V19.375H210.921ZM230.37 1.61001H242.745C247.915 1.61001 251.746 3.26001 254.24 6.56001C256.733 9.86001 257.98 14.6083 257.98 20.805C257.98 27.0017 256.733 31.75 254.24 35.05C251.746 38.35 247.915 40 242.745 40H230.37V1.61001ZM242.195 33.51C244.651 33.51 246.448 32.7217 247.585 31.145C248.721 29.5683 249.29 27.2767 249.29 24.27V17.285C249.29 14.315 248.721 12.0417 247.585 10.465C246.448 8.88834 244.651 8.10001 242.195 8.10001H238.51V33.51H242.195ZM264.228 40V1.61001H288.758V8.37501H272.478V17.175H288.208V23.94H272.478V33.235H288.758V40H264.228ZM303.807 14.48H303.202V40H296.162V1.61001H306.062L314.807 27.13H315.412V1.61001H322.452V40H312.552L303.807 14.48ZM363.824 40V1.61001H372.129V33.235H388.629V40H363.824ZM415.667 40L413.247 30.76H402.742L400.377 40H392.017L402.412 1.61001H414.072L424.467 40H415.667ZM408.242 9.58501H407.802L404.062 24.105H411.982L408.242 9.58501ZM428.956 1.61001H442.431C446.207 1.61001 449.086 2.52668 451.066 4.36001C453.082 6.19334 454.091 8.68667 454.091 11.84C454.091 14.04 453.541 15.8 452.441 17.12C451.377 18.4033 449.837 19.3383 447.821 19.925V20.255C450.204 20.8417 452.037 21.8683 453.321 23.335C454.641 24.8017 455.301 26.8367 455.301 29.44C455.301 32.6667 454.274 35.2333 452.221 37.14C450.204 39.0467 447.362 40 443.696 40H428.956V1.61001ZM441.166 34.225C443.146 34.225 444.594 33.895 445.511 33.235C446.427 32.575 446.886 31.365 446.886 29.605V28.01C446.886 26.25 446.427 25.04 445.511 24.38C444.594 23.72 443.146 23.39 441.166 23.39H436.986V34.225H441.166ZM440.121 17.89C442.064 17.89 443.476 17.5783 444.356 16.955C445.236 16.295 445.676 15.1217 445.676 13.435V11.785C445.676 10.0983 445.236 8.94334 444.356 8.32001C443.476 7.69667 442.064 7.38501 440.121 7.38501H436.986V17.89H440.121ZM473.594 40.66C470.368 40.66 467.563 40.1283 465.179 39.065C462.796 38.0017 460.871 36.5533 459.404 34.72L464.189 29.44C465.583 30.98 467.104 32.1167 468.754 32.85C470.441 33.5833 472.146 33.95 473.869 33.95C475.849 33.95 477.353 33.51 478.379 32.63C479.406 31.75 479.919 30.485 479.919 28.835C479.919 27.4783 479.516 26.4517 478.709 25.755C477.939 25.0583 476.619 24.5633 474.749 24.27L470.734 23.61C467.288 23.0233 464.794 21.7583 463.254 19.815C461.714 17.835 460.944 15.4333 460.944 12.61C460.944 8.90667 462.154 6.04667 464.574 4.03001C466.994 1.97667 470.386 0.950012 474.749 0.950012C477.719 0.950012 480.304 1.40834 482.504 2.32501C484.704 3.24167 486.483 4.48834 487.839 6.06501L483.164 11.29C482.138 10.1533 480.928 9.27334 479.534 8.65001C478.141 7.99001 476.564 7.66001 474.804 7.66001C471.101 7.66001 469.249 9.18168 469.249 12.225C469.249 13.545 469.653 14.535 470.459 15.195C471.303 15.855 472.659 16.35 474.529 16.68L478.544 17.395C481.661 17.945 484.063 19.1183 485.749 20.915C487.436 22.7117 488.279 25.1317 488.279 28.175C488.279 29.9717 487.968 31.64 487.344 33.18C486.721 34.6833 485.786 36.0033 484.539 37.14C483.293 38.24 481.753 39.1017 479.919 39.725C478.123 40.3483 476.014 40.66 473.594 40.66Z" fill="#33E5B4"/>
</svg>
